<svg width="3307" height="2192" viewBox="0 0 3307 2192" fill="none" xmlns="http://www.w3.org/2000/svg">
<path d="M26.5738 6.49576C23.8981 4.21549 19.9186 4.62564 17.4625 7.15982L16.5006 8.15104L15.5387 7.15982C13.0875 4.62564 9.10314 4.21549 6.42736 6.49576C3.36095 9.11295 3.19982 13.8102 5.94396 16.6471L15.3922 26.403C16.0026 27.0329 16.9938 27.0329 17.6041 26.403L27.0524 16.6471C29.8014 13.8102 29.6402 9.11295 26.5738 6.49576Z" stroke="black" stroke-width="2"/>
<path d="M54.5738 6.49576C51.8981 4.21549 47.9186 4.62564 45.4625 7.15982L44.5006 8.15104L43.5387 7.15982C41.0875 4.62564 37.1031 4.21549 34.4274 6.49576C31.361 9.11295 31.1998 13.8102 33.944 16.6471L43.3922 26.403C44.0026 27.0329 44.9938 27.0329 45.6041 26.403L55.0524 16.6471C57.8014 13.8102 57.6402 9.11295 54.5738 6.49576Z" fill="#E11717"/>
<rect x="1" y="1" width="3305" height="2190" stroke="black" stroke-width="2"/>
</svg>
