<svg width="3307" height="2192" viewBox="0 0 3307 2192" fill="none" xmlns="http://www.w3.org/2000/svg">
<path d="M26.5738 6.49576C23.8981 4.21549 19.9186 4.62564 17.4625 7.15982L16.5006 8.15104L15.5387 7.15982C13.0875 4.62564 9.10314 4.21549 6.42736 6.49576C3.36095 9.11295 3.19982 13.8102 5.94396 16.6471L15.3922 26.403C16.0026 27.0329 16.9938 27.0329 17.6041 26.403L27.0524 16.6471C29.8014 13.8102 29.6402 9.11295 26.5738 6.49576Z" fill="#D9D9D9"/>
<path d="M54.5738 6.49576C51.8981 4.21549 47.9186 4.62564 45.4625 7.15982L44.5006 8.15104L43.5387 7.15982C41.0875 4.62564 37.1031 4.21549 34.4274 6.49576C31.361 9.11295 31.1998 13.8102 33.944 16.6471L43.3922 26.403C44.0026 27.0329 44.9938 27.0329 45.6041 26.403L55.0524 16.6471C57.8014 13.8102 57.6402 9.11295 54.5738 6.49576Z" fill="#E11717"/>
<g clip-path="url(#clip0_105_2)">
<path d="M17.0962 43.2949C16.8866 43.4013 16.6347 43.5602 16.3624 43.7572M16.3624 43.7572C14.8221 44.8714 12.6282 47.2029 13.7434 48.1224C14.5943 48.8239 20.2726 48.9045 20.2726 47.1447C20.2726 45.0925 17.734 44.2331 16.9197 43.9671C16.8135 43.9324 16.6088 43.8523 16.3624 43.7572ZM16.3624 43.7572C15.6385 43.4776 14.5551 43.0678 14.5551 43.2949M15.1904 43.8449C14.6866 38.9022 13.3539 36.8154 11.3787 33.3955M16.7786 41.645L16.7701 41.6089C16.3011 39.6026 15.8315 37.5938 15.0316 35.9009C14.7869 35.3832 14.5551 34.0838 14.5551 34.4955M9.47294 33.9455H14.1669C14.5184 33.9455 17.1564 33.135 16.3903 32.7233C13.9982 31.4379 11.1436 31.7456 8.66119 31.7456C7.80163 31.7456 4.70837 32.4255 4.70837 31.7456M16.4609 49.3445C17.6596 52.0011 18.9378 53.9182 16.3021 55.1191C14.2515 56.0535 12.035 56.9272 10.2494 58.6939C7.09773 61.8121 17.1133 64.7435 18.3138 64.7435C18.5976 64.7435 18.8896 64.6003 19.1611 64.3558M19.1611 64.3558C19.6434 63.9216 20.0613 63.1679 20.2549 62.3298C20.4685 61.4052 19.7051 63.153 19.1611 64.3558ZM19.1611 64.3558C19.0314 64.6426 18.9141 64.8984 18.8256 65.0796C17.0446 68.7237 14.5185 71.8989 13.5316 76.2927C12.8299 79.4169 18.8155 73.9642 18.9315 74.2153C19.765 76.0192 19.2861 81.2426 17.7315 81.2426C16.7065 81.2426 16.306 81.6656 16.0727 79.898C15.6519 76.7107 16.7108 76.8427 18.3668 76.8427" stroke="black" stroke-linecap="round"/>
</g>
<g clip-path="url(#clip1_105_2)">
<path d="M39.0962 43.2949C38.8866 43.4013 38.6347 43.5602 38.3624 43.7572M38.3624 43.7572C36.8221 44.8714 34.6282 47.2029 35.7434 48.1224C36.5943 48.8239 42.2726 48.9045 42.2726 47.1447C42.2726 45.0925 39.734 44.2331 38.9197 43.9671C38.8135 43.9324 38.6088 43.8523 38.3624 43.7572ZM38.3624 43.7572C37.6385 43.4776 36.5551 43.0678 36.5551 43.2949M37.1904 43.8449C36.6866 38.9022 35.3539 36.8154 33.3787 33.3955M38.7786 41.645L38.7701 41.6089C38.3011 39.6026 37.8315 37.5938 37.0316 35.9009C36.7869 35.3832 36.5551 34.0838 36.5551 34.4955M31.4729 33.9455H36.1669C36.5184 33.9455 39.1564 33.135 38.3903 32.7233C35.9982 31.4379 33.1436 31.7456 30.6612 31.7456C29.8016 31.7456 26.7084 32.4255 26.7084 31.7456M38.4609 49.3445C39.6596 52.0011 40.9378 53.9182 38.3021 55.1191C36.2515 56.0535 34.035 56.9272 32.2494 58.6939C29.0977 61.8121 39.1133 64.7435 40.3138 64.7435C40.5976 64.7435 40.8896 64.6003 41.1611 64.3558M41.1611 64.3558C41.6434 63.9216 42.0613 63.1679 42.2549 62.3298C42.4685 61.4052 41.7051 63.153 41.1611 64.3558ZM41.1611 64.3558C41.0314 64.6426 40.9141 64.8984 40.8256 65.0796C39.0446 68.7237 36.5185 71.8989 35.5316 76.2927C34.8299 79.4169 40.8155 73.9642 40.9315 74.2153C41.765 76.0192 41.2861 81.2426 39.7315 81.2426C38.7065 81.2426 38.306 81.6656 38.0727 79.898C37.6519 76.7107 38.7108 76.8427 40.3668 76.8427" stroke="white" stroke-linecap="round"/>
</g>
<circle cx="75.038" cy="16.2273" r="5.49242" fill="black"/>
<ellipse cx="75.0379" cy="24.3333" rx="0.568182" ry="2.04545" fill="black"/>
<ellipse cx="75.0379" cy="8.04545" rx="0.568182" ry="2.04545" fill="black"/>
<ellipse cx="67.0455" cy="16.0379" rx="0.568182" ry="2.04545" transform="rotate(90 67.0455 16.0379)" fill="black"/>
<ellipse cx="69.1655" cy="10.6409" rx="0.568182" ry="2.04545" transform="rotate(132.452 69.1655 10.6409)" fill="black"/>
<ellipse cx="69.3356" cy="22.2154" rx="0.568182" ry="2.04545" transform="rotate(46.423 69.3356 22.2154)" fill="black"/>
<ellipse cx="82.9545" cy="16.0379" rx="0.568182" ry="2.04545" transform="rotate(90 82.9545 16.0379)" fill="black"/>
<ellipse cx="80.9079" cy="22.1939" rx="0.568182" ry="2.04545" transform="rotate(132.452 80.9079 22.1939)" fill="black"/>
<ellipse cx="81.6463" cy="10.8519" rx="0.568182" ry="2.04545" transform="rotate(46.423 81.6463 10.8519)" fill="black"/>
<path d="M100.296 16C100.296 19.9528 103.844 23.3699 105.861 24.9933C106.25 25.3058 106.026 25.9611 105.53 25.905C99.581 25.231 95 21.0532 95 16C95 10.9468 99.581 6.76901 105.53 6.09502C106.026 6.03892 106.25 6.69419 105.861 7.00665C103.844 8.63007 100.296 12.0472 100.296 16Z" fill="white"/>
<defs>
<clipPath id="clip0_105_2">
<rect width="17" height="51" fill="white" transform="translate(4 31)"/>
</clipPath>
<clipPath id="clip1_105_2">
<rect width="17" height="51" fill="white" transform="translate(26 31)"/>
</clipPath>
</defs>
</svg>
