<svg width="3307" height="2192" viewBox="0 0 3307 2192" fill="none" xmlns="http://www.w3.org/2000/svg">
<path d="M26.5738 6.49576C23.8981 4.21549 19.9186 4.62564 17.4625 7.15982L16.5006 8.15104L15.5387 7.15982C13.0875 4.62564 9.10314 4.21549 6.42736 6.49576C3.36095 9.11295 3.19982 13.8102 5.94396 16.6471L15.3922 26.403C16.0026 27.0329 16.9938 27.0329 17.6041 26.403L27.0524 16.6471C29.8014 13.8102 29.6402 9.11295 26.5738 6.49576Z" fill="#D9D9D9"/>
<path d="M54.5738 6.49576C51.8981 4.21549 47.9186 4.62564 45.4625 7.15982L44.5006 8.15104L43.5387 7.15982C41.0875 4.62564 37.1031 4.21549 34.4274 6.49576C31.361 9.11295 31.1998 13.8102 33.944 16.6471L43.3922 26.403C44.0026 27.0329 44.9938 27.0329 45.6041 26.403L55.0524 16.6471C57.8014 13.8102 57.6402 9.11295 54.5738 6.49576Z" fill="#E11717"/>
<g clip-path="url(#clip0_105_2)">
<path d="M17.0962 43.2949C16.8866 43.4013 16.6347 43.5602 16.3624 43.7572M16.3624 43.7572C14.8221 44.8714 12.6282 47.2029 13.7434 48.1224C14.5943 48.8239 20.2726 48.9045 20.2726 47.1447C20.2726 45.0925 17.734 44.2331 16.9197 43.9671C16.8135 43.9324 16.6088 43.8523 16.3624 43.7572ZM16.3624 43.7572C15.6385 43.4776 14.5551 43.0678 14.5551 43.2949M15.1904 43.8449C14.6866 38.9022 13.3539 36.8154 11.3787 33.3955M16.7786 41.645L16.7701 41.6089C16.3011 39.6026 15.8315 37.5938 15.0316 35.9009C14.7869 35.3832 14.5551 34.0838 14.5551 34.4955M9.47294 33.9455H14.1669C14.5184 33.9455 17.1564 33.135 16.3903 32.7233C13.9982 31.4379 11.1436 31.7456 8.66119 31.7456C7.80163 31.7456 4.70837 32.4255 4.70837 31.7456M16.4609 49.3445C17.6596 52.0011 18.9378 53.9182 16.3021 55.1191C14.2515 56.0535 12.035 56.9272 10.2494 58.6939C7.09773 61.8121 17.1133 64.7435 18.3138 64.7435C18.5976 64.7435 18.8896 64.6003 19.1611 64.3558M19.1611 64.3558C19.6434 63.9216 20.0613 63.1679 20.2549 62.3298C20.4685 61.4052 19.7051 63.153 19.1611 64.3558ZM19.1611 64.3558C19.0314 64.6426 18.9141 64.8984 18.8256 65.0796C17.0446 68.7237 14.5185 71.8989 13.5316 76.2927C12.8299 79.4169 18.8155 73.9642 18.9315 74.2153C19.765 76.0192 19.2861 81.2426 17.7315 81.2426C16.7065 81.2426 16.306 81.6656 16.0727 79.898C15.6519 76.7107 16.7108 76.8427 18.3668 76.8427" stroke="black" stroke-linecap="round"/>
</g>
<g clip-path="url(#clip1_105_2)">
<path d="M39.0962 43.2949C38.8866 43.4013 38.6347 43.5602 38.3624 43.7572M38.3624 43.7572C36.8221 44.8714 34.6282 47.2029 35.7434 48.1224C36.5943 48.8239 42.2726 48.9045 42.2726 47.1447C42.2726 45.0925 39.734 44.2331 38.9197 43.9671C38.8135 43.9324 38.6088 43.8523 38.3624 43.7572ZM38.3624 43.7572C37.6385 43.4776 36.5551 43.0678 36.5551 43.2949M37.1904 43.8449C36.6866 38.9022 35.3539 36.8154 33.3787 33.3955M38.7786 41.645L38.7701 41.6089C38.3011 39.6026 37.8315 37.5938 37.0316 35.9009C36.7869 35.3832 36.5551 34.0838 36.5551 34.4955M31.4729 33.9455H36.1669C36.5184 33.9455 39.1564 33.135 38.3903 32.7233C35.9982 31.4379 33.1436 31.7456 30.6612 31.7456C29.8016 31.7456 26.7084 32.4255 26.7084 31.7456M38.4609 49.3445C39.6596 52.0011 40.9378 53.9182 38.3021 55.1191C36.2515 56.0535 34.035 56.9272 32.2494 58.6939C29.0977 61.8121 39.1133 64.7435 40.3138 64.7435C40.5976 64.7435 40.8896 64.6003 41.1611 64.3558M41.1611 64.3558C41.6434 63.9216 42.0613 63.1679 42.2549 62.3298C42.4685 61.4052 41.7051 63.153 41.1611 64.3558ZM41.1611 64.3558C41.0314 64.6426 40.9141 64.8984 40.8256 65.0796C39.0446 68.7237 36.5185 71.8989 35.5316 76.2927C34.8299 79.4169 40.8155 73.9642 40.9315 74.2153C41.765 76.0192 41.2861 81.2426 39.7315 81.2426C38.7065 81.2426 38.306 81.6656 38.0727 79.898C37.6519 76.7107 38.7108 76.8427 40.3668 76.8427" stroke="white" stroke-linecap="round"/>
</g>
<circle cx="75.038" cy="16.2273" r="5.49242" fill="black"/>
<ellipse cx="75.0379" cy="24.3333" rx="0.568182" ry="2.04545" fill="black"/>
<ellipse cx="75.0379" cy="8.04545" rx="0.568182" ry="2.04545" fill="black"/>
<ellipse cx="67.0455" cy="16.0379" rx="0.568182" ry="2.04545" transform="rotate(90 67.0455 16.0379)" fill="black"/>
<ellipse cx="69.1655" cy="10.6409" rx="0.568182" ry="2.04545" transform="rotate(132.452 69.1655 10.6409)" fill="black"/>
<ellipse cx="69.3356" cy="22.2154" rx="0.568182" ry="2.04545" transform="rotate(46.423 69.3356 22.2154)" fill="black"/>
<ellipse cx="82.9545" cy="16.0379" rx="0.568182" ry="2.04545" transform="rotate(90 82.9545 16.0379)" fill="black"/>
<ellipse cx="80.9079" cy="22.1939" rx="0.568182" ry="2.04545" transform="rotate(132.452 80.9079 22.1939)" fill="black"/>
<ellipse cx="81.6463" cy="10.8519" rx="0.568182" ry="2.04545" transform="rotate(46.423 81.6463 10.8519)" fill="black"/>
<path d="M100.296 16C100.296 19.9528 103.844 23.3699 105.861 24.9933C106.25 25.3058 106.026 25.9611 105.53 25.905C99.581 25.231 95 21.0532 95 16C95 10.9468 99.581 6.76901 105.53 6.09502C106.026 6.03892 106.25 6.69419 105.861 7.00665C103.844 8.63007 100.296 12.0472 100.296 16Z" fill="white"/>
<path d="M137.002 49.3595C133.881 49.3595 131.363 51.8778 131.363 55C131.363 58.1222 133.881 60.6405 137.002 60.6405C140.124 60.6405 142.642 58.1222 142.642 55C142.642 51.8778 140.124 49.3595 137.002 49.3595ZM137.002 58.6671C134.985 58.6671 133.336 57.0225 133.336 55C133.336 52.9775 134.98 51.3329 137.002 51.3329C139.025 51.3329 140.669 52.9775 140.669 55C140.669 57.0225 139.02 58.6671 137.002 58.6671ZM144.188 49.1288C144.188 49.8602 143.599 50.4444 142.872 50.4444C142.141 50.4444 141.557 49.8553 141.557 49.1288C141.557 48.4022 142.146 47.8131 142.872 47.8131C143.599 47.8131 144.188 48.4022 144.188 49.1288ZM147.923 50.464C147.839 48.7017 147.437 47.1406 146.146 45.8544C144.86 44.5682 143.299 44.1657 141.537 44.0773C139.721 43.9742 134.279 43.9742 132.463 44.0773C130.706 44.1608 129.145 44.5633 127.854 45.8495C126.563 47.1357 126.166 48.6968 126.077 50.4591C125.974 52.2755 125.974 57.7196 126.077 59.536C126.161 61.2983 126.563 62.8594 127.854 64.1456C129.145 65.4318 130.701 65.8343 132.463 65.9227C134.279 66.0258 139.721 66.0258 141.537 65.9227C143.299 65.8392 144.86 65.4367 146.146 64.1456C147.432 62.8594 147.834 61.2983 147.923 59.536C148.026 57.7196 148.026 52.2804 147.923 50.464ZM145.577 61.4849C145.194 62.4471 144.453 63.1883 143.486 63.5761C142.038 64.1505 138.602 64.018 137.002 64.018C135.402 64.018 131.962 64.1456 130.519 63.5761C129.557 63.1932 128.816 62.452 128.428 61.4849C127.854 60.0367 127.987 56.6004 127.987 55C127.987 53.3996 127.859 49.9584 128.428 48.5151C128.811 47.5529 129.552 46.8117 130.519 46.4239C131.967 45.8495 135.402 45.982 137.002 45.982C138.602 45.982 142.043 45.8544 143.486 46.4239C144.448 46.8068 145.189 47.548 145.577 48.5151C146.151 49.9633 146.018 53.3996 146.018 55C146.018 56.6004 146.151 60.0416 145.577 61.4849Z" fill="black"/>
<path d="M137.002 79.3595C133.881 79.3595 131.363 81.8778 131.363 85C131.363 88.1222 133.881 90.6405 137.002 90.6405C140.124 90.6405 142.642 88.1222 142.642 85C142.642 81.8778 140.124 79.3595 137.002 79.3595ZM137.002 88.6671C134.985 88.6671 133.336 87.0225 133.336 85C133.336 82.9775 134.98 81.3329 137.002 81.3329C139.025 81.3329 140.669 82.9775 140.669 85C140.669 87.0225 139.02 88.6671 137.002 88.6671ZM144.188 79.1288C144.188 79.8602 143.599 80.4444 142.872 80.4444C142.141 80.4444 141.557 79.8553 141.557 79.1288C141.557 78.4022 142.146 77.8131 142.872 77.8131C143.599 77.8131 144.188 78.4022 144.188 79.1288ZM147.923 80.464C147.839 78.7017 147.437 77.1406 146.146 75.8544C144.86 74.5682 143.299 74.1657 141.537 74.0773C139.721 73.9742 134.279 73.9742 132.463 74.0773C130.706 74.1608 129.145 74.5633 127.854 75.8495C126.563 77.1357 126.166 78.6968 126.077 80.4591C125.974 82.2755 125.974 87.7196 126.077 89.536C126.161 91.2983 126.563 92.8594 127.854 94.1456C129.145 95.4318 130.701 95.8343 132.463 95.9227C134.279 96.0258 139.721 96.0258 141.537 95.9227C143.299 95.8392 144.86 95.4367 146.146 94.1456C147.432 92.8594 147.834 91.2983 147.923 89.536C148.026 87.7196 148.026 82.2804 147.923 80.464ZM145.577 91.4849C145.194 92.4471 144.453 93.1883 143.486 93.5761C142.038 94.1505 138.602 94.018 137.002 94.018C135.402 94.018 131.962 94.1456 130.519 93.5761C129.557 93.1932 128.816 92.452 128.428 91.4849C127.854 90.0367 127.987 86.6004 127.987 85C127.987 83.3996 127.859 79.9584 128.428 78.5151C128.811 77.5529 129.552 76.8117 130.519 76.4239C131.967 75.8495 135.402 75.982 137.002 75.982C138.602 75.982 142.043 75.8544 143.486 76.4239C144.448 76.8068 145.189 77.548 145.577 78.5151C146.151 79.9633 146.018 83.3996 146.018 85C146.018 86.6004 146.151 90.0416 145.577 91.4849Z" fill="white"/>
<path d="M98.3619 61.13C98.3619 61.2334 98.246 61.3161 98.0998 61.3161C97.9335 61.3316 97.8175 61.2489 97.8175 61.13C97.8175 61.0266 97.9335 60.9439 98.0796 60.9439C98.2308 60.9284 98.3619 61.0111 98.3619 61.13ZM96.7944 60.8973C96.7591 61.0007 96.8599 61.1196 97.0111 61.1506C97.1421 61.2023 97.2933 61.1506 97.3236 61.0473C97.3538 60.9439 97.2581 60.825 97.1069 60.7784C96.9758 60.7423 96.8296 60.7939 96.7944 60.8973ZM99.0222 60.8095C98.876 60.8456 98.7752 60.9439 98.7903 61.0628C98.8054 61.1661 98.9365 61.2334 99.0877 61.1972C99.2339 61.161 99.3347 61.0628 99.3196 60.9594C99.3044 60.8611 99.1683 60.7939 99.0222 60.8095ZM102.339 41C95.3478 41 90 46.4435 90 53.6135C90 59.3465 93.5181 64.2523 98.5433 65.9789C99.1885 66.0978 99.4153 65.6894 99.4153 65.3534C99.4153 65.0329 99.4002 63.265 99.4002 62.1794C99.4002 62.1794 95.872 62.9548 95.131 60.6389C95.131 60.6389 94.5565 59.1345 93.7298 58.7468C93.7298 58.7468 92.5756 57.9352 93.8105 57.9507C93.8105 57.9507 95.0655 58.0541 95.756 59.2845C96.8599 61.2799 98.7097 60.7061 99.4304 60.3649C99.5464 59.5378 99.874 58.9639 100.237 58.6228C97.4194 58.3023 94.5766 57.8835 94.5766 52.9105C94.5766 51.4889 94.9597 50.7755 95.7661 49.8657C95.6351 49.5296 95.2067 48.1442 95.8972 46.3556C96.9506 46.0196 99.375 47.7513 99.375 47.7513C100.383 47.4619 101.467 47.3119 102.54 47.3119C103.614 47.3119 104.698 47.4619 105.706 47.7513C105.706 47.7513 108.13 46.0144 109.183 46.3556C109.874 48.1494 109.446 49.5296 109.315 49.8657C110.121 50.7807 110.615 51.494 110.615 52.9105C110.615 57.899 107.646 58.2971 104.829 58.6228C105.292 59.0312 105.685 59.8066 105.685 61.0214C105.685 62.7635 105.67 64.9192 105.67 65.3431C105.67 65.6791 105.902 66.0875 106.542 65.9686C111.583 64.2523 115 59.3465 115 53.6135C115 46.4435 109.33 41 102.339 41ZM94.8992 58.8295C94.8337 58.8812 94.8488 59.0001 94.9345 59.0984C95.0151 59.1811 95.131 59.2173 95.1966 59.1501C95.2621 59.0984 95.247 58.9795 95.1613 58.8812C95.0806 58.7985 94.9647 58.7623 94.8992 58.8295ZM94.3548 58.4108C94.3196 58.478 94.37 58.5607 94.4708 58.6124C94.5514 58.6641 94.6522 58.6486 94.6875 58.5762C94.7228 58.509 94.6724 58.4263 94.5716 58.3746C94.4708 58.3436 94.3901 58.3591 94.3548 58.4108ZM95.9879 60.2512C95.9073 60.3184 95.9375 60.4734 96.0534 60.5717C96.1694 60.6906 96.3155 60.7061 96.381 60.6234C96.4466 60.5561 96.4163 60.4011 96.3155 60.3028C96.2046 60.1839 96.0534 60.1684 95.9879 60.2512ZM95.4133 59.4912C95.3327 59.5429 95.3327 59.6773 95.4133 59.7962C95.494 59.9151 95.63 59.9668 95.6956 59.9151C95.7762 59.8479 95.7762 59.7135 95.6956 59.5946C95.625 59.4757 95.494 59.424 95.4133 59.4912Z" fill="black"/>
<path d="M98.3619 91.13C98.3619 91.2334 98.246 91.3161 98.0998 91.3161C97.9335 91.3316 97.8175 91.2489 97.8175 91.13C97.8175 91.0266 97.9335 90.9439 98.0796 90.9439C98.2308 90.9284 98.3619 91.0111 98.3619 91.13ZM96.7944 90.8973C96.7591 91.0007 96.8599 91.1196 97.0111 91.1506C97.1421 91.2023 97.2933 91.1506 97.3236 91.0473C97.3538 90.9439 97.2581 90.825 97.1069 90.7784C96.9758 90.7423 96.8296 90.7939 96.7944 90.8973ZM99.0222 90.8095C98.876 90.8456 98.7752 90.9439 98.7903 91.0628C98.8054 91.1661 98.9365 91.2334 99.0877 91.1972C99.2339 91.161 99.3347 91.0628 99.3196 90.9594C99.3044 90.8611 99.1683 90.7939 99.0222 90.8095ZM102.339 71C95.3478 71 90 76.4435 90 83.6135C90 89.3465 93.5181 94.2523 98.5433 95.9789C99.1885 96.0978 99.4153 95.6894 99.4153 95.3534C99.4153 95.0329 99.4002 93.265 99.4002 92.1794C99.4002 92.1794 95.872 92.9548 95.131 90.6389C95.131 90.6389 94.5565 89.1345 93.7298 88.7468C93.7298 88.7468 92.5756 87.9352 93.8105 87.9507C93.8105 87.9507 95.0655 88.0541 95.756 89.2845C96.8599 91.2799 98.7097 90.7061 99.4304 90.3649C99.5464 89.5378 99.874 88.9639 100.237 88.6228C97.4194 88.3023 94.5766 87.8835 94.5766 82.9105C94.5766 81.4889 94.9597 80.7755 95.7661 79.8657C95.6351 79.5296 95.2067 78.1442 95.8972 76.3556C96.9506 76.0196 99.375 77.7513 99.375 77.7513C100.383 77.4619 101.467 77.3119 102.54 77.3119C103.614 77.3119 104.698 77.4619 105.706 77.7513C105.706 77.7513 108.13 76.0144 109.183 76.3556C109.874 78.1494 109.446 79.5296 109.315 79.8657C110.121 80.7807 110.615 81.494 110.615 82.9105C110.615 87.899 107.646 88.2971 104.829 88.6228C105.292 89.0312 105.685 89.8066 105.685 91.0214C105.685 92.7635 105.67 94.9192 105.67 95.3431C105.67 95.6791 105.902 96.0875 106.542 95.9686C111.583 94.2523 115 89.3465 115 83.6135C115 76.4435 109.33 71 102.339 71ZM94.8992 88.8295C94.8337 88.8812 94.8488 89.0001 94.9345 89.0984C95.0151 89.1811 95.131 89.2173 95.1966 89.1501C95.2621 89.0984 95.247 88.9795 95.1613 88.8812C95.0806 88.7985 94.9647 88.7623 94.8992 88.8295ZM94.3548 88.4108C94.3196 88.478 94.37 88.5607 94.4708 88.6124C94.5514 88.6641 94.6522 88.6486 94.6875 88.5762C94.7228 88.509 94.6724 88.4263 94.5716 88.3746C94.4708 88.3436 94.3901 88.3591 94.3548 88.4108ZM95.9879 90.2512C95.9073 90.3184 95.9375 90.4734 96.0534 90.5717C96.1694 90.6906 96.3155 90.7061 96.381 90.6234C96.4466 90.5561 96.4163 90.4011 96.3155 90.3028C96.2046 90.1839 96.0534 90.1684 95.9879 90.2512ZM95.4133 89.4912C95.3327 89.5429 95.3327 89.6773 95.4133 89.7962C95.494 89.9151 95.63 89.9668 95.6956 89.9151C95.7762 89.8479 95.7762 89.7135 95.6956 89.5946C95.625 89.4757 95.494 89.424 95.4133 89.4912Z" fill="white"/>
<path d="M68 61.5C66.24 61.5 64.48 59.925 63.6 59.25C59.2 56.1 57.88 54.975 57 54.3V63.75C57 64.9924 57.9852 66 59.2 66H76.8C78.0148 66 79 64.9924 79 63.75V54.3C78.12 54.975 76.8 56.1 72.4 59.25C71.52 59.925 69.76 61.5 68 61.5ZM76.8 48H59.2C57.9852 48 57 49.0076 57 50.25V51.375C58.76 52.725 58.54 52.725 64.92 57.45C65.58 57.9 66.9 59.25 68 59.25C69.1 59.25 70.42 57.9 71.08 57.675C77.46 52.95 77.24 52.95 79 51.6V50.25C79 49.0076 78.0148 48 76.8 48Z" fill="black"/>
<path d="M68 91.5C66.24 91.5 64.48 89.925 63.6 89.25C59.2 86.1 57.88 84.975 57 84.3V93.75C57 94.9924 57.9852 96 59.2 96H76.8C78.0148 96 79 94.9924 79 93.75V84.3C78.12 84.975 76.8 86.1 72.4 89.25C71.52 89.925 69.76 91.5 68 91.5ZM76.8 78H59.2C57.9852 78 57 79.0076 57 80.25V81.375C58.76 82.725 58.54 82.725 64.92 87.45C65.58 87.9 66.9 89.25 68 89.25C69.1 89.25 70.42 87.9 71.08 87.675C77.46 82.95 77.24 82.95 79 81.6V80.25C79 79.0076 78.0148 78 76.8 78Z" fill="white"/>
<path d="M128.5 16.5C131.183 16.5 133.357 14.3736 133.357 11.75C133.357 9.12637 131.183 7 128.5 7C125.817 7 123.643 9.12637 123.643 11.75C123.643 14.3736 125.817 16.5 128.5 16.5ZM131.9 17.6875H131.266C130.424 18.066 129.487 18.2812 128.5 18.2812C127.513 18.2812 126.58 18.066 125.734 17.6875H125.1C122.284 17.6875 120 19.9215 120 22.675V24.2188C120 25.2021 120.816 26 121.821 26H135.179C136.184 26 137 25.2021 137 24.2188V22.675C137 19.9215 134.716 17.6875 131.9 17.6875Z" fill="black"/>
<path d="M147.5 16.5C150.183 16.5 152.357 14.3736 152.357 11.75C152.357 9.12637 150.183 7 147.5 7C144.817 7 142.643 9.12637 142.643 11.75C142.643 14.3736 144.817 16.5 147.5 16.5ZM150.9 17.6875H150.266C149.424 18.066 148.487 18.2812 147.5 18.2812C146.513 18.2812 145.58 18.066 144.734 17.6875H144.1C141.284 17.6875 139 19.9215 139 22.675V24.2188C139 25.2021 139.816 26 140.821 26H154.179C155.184 26 156 25.2021 156 24.2188V22.675C156 19.9215 153.716 17.6875 150.9 17.6875Z" fill="white"/>
<path d="M166.001 16.4752C166.276 16.5027 166.5 16.2761 166.5 16V11.75V7.5C166.5 7.22386 166.276 6.99735 166.001 7.02478C163.553 7.26916 161.643 9.29121 161.643 11.75C161.643 14.2088 163.553 16.2308 166.001 16.4752ZM169.9 17.6875H169.373C169.303 17.6875 169.233 17.7027 169.168 17.7306C168.351 18.0823 167.448 18.2812 166.5 18.2812C165.551 18.2812 164.652 18.0822 163.831 17.7303C163.767 17.7026 163.697 17.6875 163.627 17.6875H163.1C160.284 17.6875 158 19.9215 158 22.675V24.2188C158 25.2021 158.816 26 159.821 26H173.179C174.184 26 175 25.2021 175 24.2188V22.675C175 19.9215 172.716 17.6875 169.9 17.6875Z" fill="black"/>
<path d="M171.907 12.0632L169.673 16C169.474 16.3515 169.128 16.1054 169.128 15.6016V13.852C169.128 13.5759 168.904 13.352 168.628 13.352H167.319C167.142 13.352 167 13.1013 167 12.7896V10.54C167 10.2283 167.142 9.97756 167.319 9.97756H168.628C168.904 9.97756 169.128 9.75371 169.128 9.47756V7.72794C169.128 7.22646 169.472 6.97806 169.673 7.32957L171.907 11.2664C172.031 11.4867 172.031 11.8429 171.907 12.0632Z" fill="black"/>
<path d="M185.001 16.4752C185.276 16.5027 185.5 16.2761 185.5 16V11.75V7.5C185.5 7.22386 185.276 6.99735 185.001 7.02478C182.553 7.26916 180.643 9.29121 180.643 11.75C180.643 14.2088 182.553 16.2308 185.001 16.4752ZM188.9 17.6875H188.373C188.303 17.6875 188.233 17.7027 188.168 17.7306C187.351 18.0823 186.448 18.2812 185.5 18.2812C184.551 18.2812 183.652 18.0822 182.831 17.7303C182.767 17.7026 182.697 17.6875 182.627 17.6875H182.1C179.284 17.6875 177 19.9215 177 22.675V24.2188C177 25.2021 177.816 26 178.821 26H192.179C193.184 26 194 25.2021 194 24.2188V22.675C194 19.9215 191.716 17.6875 188.9 17.6875Z" fill="white"/>
<path d="M190.907 12.0632L188.673 16C188.474 16.3515 188.128 16.1054 188.128 15.6016V13.852C188.128 13.5759 187.904 13.352 187.628 13.352H186.319C186.142 13.352 186 13.1013 186 12.7896V10.54C186 10.2283 186.142 9.97756 186.319 9.97756H187.628C187.904 9.97756 188.128 9.75371 188.128 9.47756V7.72794C188.128 7.22646 188.472 6.97806 188.673 7.32957L190.907 11.2664C191.031 11.4867 191.031 11.8429 190.907 12.0632Z" fill="white"/>
<path d="M165.607 48.8125H162.661L162.43 48.3377C162.381 48.2362 162.306 48.1508 162.212 48.0911C162.119 48.0315 162.012 47.9999 161.902 48H159.096C158.986 47.9996 158.879 48.031 158.786 48.0907C158.693 48.1505 158.618 48.2361 158.57 48.3377L158.339 48.8125H155.393C155.289 48.8125 155.189 48.8553 155.115 48.9315C155.041 49.0077 155 49.111 155 49.2188V50.0313C155 50.139 155.041 50.2423 155.115 50.3185C155.189 50.3947 155.289 50.4375 155.393 50.4375H165.607C165.711 50.4375 165.811 50.3947 165.885 50.3185C165.959 50.2423 166 50.139 166 50.0313V49.2188C166 49.111 165.959 49.0077 165.885 48.9315C165.811 48.8553 165.711 48.8125 165.607 48.8125ZM156.306 59.8574C156.325 60.1668 156.457 60.4572 156.676 60.6695C156.894 60.8818 157.183 61 157.482 61H163.518C163.817 61 164.106 60.8818 164.324 60.6695C164.543 60.4572 164.675 60.1668 164.694 59.8574L165.214 51.25H155.786L156.306 59.8574Z" fill="#D9D9D9"/>
<path d="M156 77V80H162.09H164L162.5 78.5" stroke="black" stroke-linecap="round" stroke-linejoin="round"/>
<path d="M164 80L162.5 81.5" stroke="black" stroke-linecap="round" stroke-linejoin="round"/>
<path d="M156 85V88H162.09H164L162.5 86.5" stroke="white" stroke-linecap="round" stroke-linejoin="round"/>
<path d="M164 88L162.5 89.5" stroke="white" stroke-linecap="round" stroke-linejoin="round"/>
<path d="M177.344 54.9849L183.984 48.3442C184.443 47.8853 185.185 47.8853 185.64 48.3442L186.743 49.4478C187.202 49.9067 187.202 50.6489 186.743 51.103L182.041 55.8149L186.748 60.522C187.207 60.981 187.207 61.7231 186.748 62.1772L185.644 63.2856C185.185 63.7446 184.443 63.7446 183.989 63.2856L177.349 56.645C176.885 56.186 176.885 55.4438 177.344 54.9849Z" fill="#E3E3E3"/>
<path d="M200.749 54.9849L194.108 48.3442C193.649 47.8853 192.907 47.8853 192.453 48.3442L191.349 49.4478C190.89 49.9067 190.89 50.6489 191.349 51.103L196.051 55.8149L191.344 60.522C190.885 60.981 190.885 61.7231 191.344 62.1772L192.448 63.2856C192.907 63.7446 193.649 63.7446 194.103 63.2856L200.744 56.645C201.208 56.186 201.208 55.4438 200.749 54.9849Z" fill="#E3E3E3"/>
<defs>
<clipPath id="clip0_105_2">
<rect width="17" height="51" fill="white" transform="translate(4 31)"/>
</clipPath>
<clipPath id="clip1_105_2">
<rect width="17" height="51" fill="white" transform="translate(26 31)"/>
</clipPath>
</defs>
</svg>
